<svg xmlns="http://www.w3.org/2000/svg" width="880" height="340" viewBox="0 0 880 340" role="img" aria-labelledby="title desc">
  <title id="title">Turns per task by model</title>
  <desc id="desc">Fable 5.1 batch 5.25, Opus 5.5 batch 6.5, Sonnet 5.5 batch 5.75, Haiku 4.5 batch 10.5, Haiku 5.5 batch 8.25, GPT-6-Astra batch 5, GPT-6.1 Sol batch 5.25, GPT-6-Luna batch 6.5</desc>
  <style>
    .bg { fill: #f6f8fa; stroke: #d1d9e0; }
    .rule { stroke: #d1d9e0; }
    .text { fill: #1f2328; }
    .muted { fill: #59636e; }
    .s0 { fill: #0969da; }
    .s1 { fill: #bf8700; }
    .s2 { fill: #1a7f37; }
    .s3 { fill: #8250df; }
    .s4 { fill: #cf222e; }
    .s5 { fill: #1b7c83; }
    .s6 { fill: #bc4c00; }
    .s7 { fill: #bf3989; }
    .sans { font-family: ui-sans-serif, -apple-system, "Segoe UI", Helvetica, Arial, sans-serif; }
    .mono { font-family: ui-monospace, SFMono-Regular, Menlo, Consolas, monospace; }
    @media (prefers-color-scheme: dark) {
      .bg { fill: #0d1117; stroke: #3d444d; }
      .rule { stroke: #3d444d; }
      .text { fill: #f0f6fc; }
      .muted { fill: #9198a1; }
      .s0 { fill: #4493f8; }
      .s1 { fill: #d29922; }
      .s2 { fill: #3fb950; }
      .s3 { fill: #ab7df8; }
      .s4 { fill: #f85149; }
      .s5 { fill: #39c5cf; }
      .s6 { fill: #f0883e; }
      .s7 { fill: #db61a2; }
    }
  </style>
  <rect class="bg" x="0.5" y="0.5" width="879" height="339" rx="12" />
  <text class="text sans" x="56" y="28" font-size="16" font-weight="600">Turns per task, average over the scenarios</text>
  <line class="rule" x1="56" x2="856" y1="284" y2="284" />
  <text class="muted sans" x="48" y="288" font-size="11" text-anchor="end">0</text>
  <line class="rule" x1="56" x2="856" y1="224" y2="224" />
  <text class="muted sans" x="48" y="228" font-size="11" text-anchor="end">5</text>
  <line class="rule" x1="56" x2="856" y1="164" y2="164" />
  <text class="muted sans" x="48" y="168" font-size="11" text-anchor="end">10</text>
  <line class="rule" x1="56" x2="856" y1="104" y2="104" />
  <text class="muted sans" x="48" y="108" font-size="11" text-anchor="end">15</text>
  <line class="rule" x1="56" x2="856" y1="44" y2="44" />
  <text class="muted sans" x="48" y="48" font-size="11" text-anchor="end">20</text>
  <rect class="s0" x="76" y="221" width="60" height="63" rx="3" />
  <text class="text sans" x="106" y="216" font-size="11" text-anchor="middle">5.25</text>
  <text class="text sans" x="106" y="306" font-size="12" text-anchor="middle">Fable 5.1 batch</text>
  <rect class="s1" x="176" y="206" width="60" height="78" rx="3" />
  <text class="text sans" x="206" y="201" font-size="11" text-anchor="middle">6.5</text>
  <text class="text sans" x="206" y="306" font-size="12" text-anchor="middle">Opus 5.5 batch</text>
  <rect class="s2" x="276" y="215" width="60" height="69" rx="3" />
  <text class="text sans" x="306" y="210" font-size="11" text-anchor="middle">5.75</text>
  <text class="text sans" x="306" y="306" font-size="12" text-anchor="middle">Sonnet 5.5 batch</text>
  <rect class="s3" x="376" y="158" width="60" height="126" rx="3" />
  <text class="text sans" x="406" y="153" font-size="11" text-anchor="middle">10.5</text>
  <text class="text sans" x="406" y="306" font-size="12" text-anchor="middle">Haiku 4.5 batch</text>
  <rect class="s4" x="476" y="185" width="60" height="99" rx="3" />
  <text class="text sans" x="506" y="180" font-size="11" text-anchor="middle">8.25</text>
  <text class="text sans" x="506" y="306" font-size="12" text-anchor="middle">Haiku 5.5 batch</text>
  <rect class="s5" x="576" y="224" width="60" height="60" rx="3" />
  <text class="text sans" x="606" y="219" font-size="11" text-anchor="middle">5</text>
  <text class="text sans" x="606" y="306" font-size="12" text-anchor="middle">GPT-6-Astra batch</text>
  <rect class="s6" x="676" y="221" width="60" height="63" rx="3" />
  <text class="text sans" x="706" y="216" font-size="11" text-anchor="middle">5.25</text>
  <text class="text sans" x="706" y="306" font-size="12" text-anchor="middle">GPT-6.1 Sol batch</text>
  <rect class="s7" x="776" y="206" width="60" height="78" rx="3" />
  <text class="text sans" x="806" y="201" font-size="11" text-anchor="middle">6.5</text>
  <text class="text sans" x="806" y="306" font-size="12" text-anchor="middle">GPT-6-Luna batch</text>
</svg>
